# xmcd
#
# Track frame offsets: 
#        150
#        17543
#        35456
#        51549
#        65961
#        78306
#        91654
#        105819
#        120099
#        134216
#        148415
#        164205
#        177830
#        193299
#        207977
#        223781
#
# Disc length: 3201 seconds
#
# Revision: 7
# Processed by: cddbd v1.5.2PL0 Copyright (c) Steve Scherf et al.
# Submitted via: ExactAudioCopy v0.95b4
#
DISCID=f30c7f10
DTITLE=John Lee Hooker - Blues Is the Healer [CD01 of 10)
DYEAR=2005
DGENRE=Blues
TTITLE0=Leavin' Chicago
TTITLE1=Wednesday Evening Blues
TTITLE2=My First Wife Left Me
TTITLE3=Sally Mae
TTITLE4=War Is Over (Goodbye California)
TTITLE5=She Was in Chicago
TTITLE6=Boogie Chillen
TTITLE7=Henry's Swing Club
TTITLE8=Stomp Boogie
TTITLE9=Who's Been Jiving You?
TTITLE10=Black Man Blues
TTITLE11=Shake Your Boogie
TTITLE12=Poor Slim
TTITLE13=Mercy Blues
TTITLE14=Boogie Woogie
TTITLE15=Helpless Blues
EXTD=
EXTT0=
EXTT1=
EXTT2=
EXTT3=
EXTT4=
EXTT5=
EXTT6=
EXTT7=
EXTT8=
EXTT9=
EXTT10=
EXTT11=
EXTT12=
EXTT13=
EXTT14=
EXTT15=
PLAYORDER=
